<svg xmlns="http://www.w3.org/2000/svg" width="35.182" height="30" viewBox="0 0 35.182 30">
  <g id="graph" transform="translate(-3.05 -6.449)">
    <path id="Path_12" data-name="Path 12" d="M37.6,6.45l-7.332.333a.605.605,0,0,0-.4,1.029l1.471,1.471-15.517,11.5-6.9-8.476a.605.605,0,0,0-.872-.073L3.256,16.475a.605.605,0,0,0-.206.454v4.843a.605.605,0,0,0,1.005.454l4.323-3.82,6.835,8.458a.605.605,0,0,0,.835.1L34.866,12.837l1.986,1.986a.605.605,0,0,0,1.035-.4l.345-7.362A.605.605,0,0,0,37.6,6.45Z" transform="translate(0 0)" fill="#fff"/>
    <rect id="Rectangle_28" data-name="Rectangle 28" width="5.449" height="12.109" rx="1" transform="translate(3.625 24.34)" fill="#fff"/>
    <rect id="Rectangle_29" data-name="Rectangle 29" width="5.449" height="7.265" rx="1" transform="translate(13.312 29.184)" fill="#fff"/>
    <rect id="Rectangle_30" data-name="Rectangle 30" width="5.449" height="12.109" rx="1" transform="translate(22.999 24.34)" fill="#fff"/>
    <rect id="Rectangle_31" data-name="Rectangle 31" width="5.449" height="18.768" rx="1" transform="translate(32.081 17.68)" fill="#fff"/>
  </g>
</svg>
