<svg xmlns="http://www.w3.org/2000/svg" width="24.397" height="30" viewBox="0 0 24.397 30">
  <g id="__TEMP__SVG__" transform="translate(-4.333 -1.195)">
    <path id="Path_18" data-name="Path 18" d="M29.015,8.377H27.9v21.5a.486.486,0,0,1-.486.486h-15.9V31.48a.486.486,0,0,0,.486.486H29.015a.486.486,0,0,0,.486-.486V8.863a.486.486,0,0,0-.486-.486Z" transform="translate(-0.772 -0.772)" fill="#fff"/>
    <path id="Path_19" data-name="Path 19" d="M25.911,27.888V5.272a.486.486,0,0,0-.486-.486H24.308v21.5a.486.486,0,0,1-.486.486H7.924v1.117a.486.486,0,0,0,.486.486H25.424a.486.486,0,0,0,.486-.486Z" transform="translate(-0.386 -0.386)" fill="#fff"/>
    <path id="Path_20" data-name="Path 20" d="M22.32,24.3V1.681a.486.486,0,0,0-.486-.486H4.819a.486.486,0,0,0-.486.486V24.3a.486.486,0,0,0,.486.486H21.833a.486.486,0,0,0,.486-.486Z" transform="translate(0)" fill="#fff"/>
  </g>
</svg>
