<svg xmlns="http://www.w3.org/2000/svg" width="30" height="30" viewBox="0 0 30 30">
  <g id="profit" transform="translate(-0.004 0)">
    <g id="Group_24" data-name="Group 24" transform="translate(14.125 10.605)">
      <g id="Group_23" data-name="Group 23">
        <path id="Path_13" data-name="Path 13" d="M248.91,181a7.91,7.91,0,1,0,7.969,7.91A7.919,7.919,0,0,0,248.91,181Zm.9,12.146c-.008,0-.016,0-.023,0v1.034a.879.879,0,0,1-1.758,0v-1.04a3.614,3.614,0,0,1-1.608-1.132.878.878,0,1,1,1.346-1.13,1.355,1.355,0,0,0,1.441.612.879.879,0,0,0-.3-1.705,2.637,2.637,0,0,1-1.027-5.066c.048-.021.1-.019.148-.037v-1.05a.879.879,0,0,1,1.758,0v1.051a3.4,3.4,0,0,1,1.3.782.879.879,0,1,1-1.224,1.262,1.2,1.2,0,0,0-1.292-.39.879.879,0,0,0,.342,1.689,2.637,2.637,0,0,1,.9,5.114Z" transform="translate(-241 -181.005)" fill="#fff"/>
      </g>
    </g>
    <g id="Group_26" data-name="Group 26" transform="translate(0.004 19.394)">
      <g id="Group_25" data-name="Group 25">
        <path id="Path_14" data-name="Path 14" d="M.883,331a.878.878,0,0,0-.879.879v8.848a.878.878,0,0,0,.879.879H3.52V331Z" transform="translate(-0.004 -331.003)" fill="#fff"/>
      </g>
    </g>
    <g id="Group_28" data-name="Group 28" transform="translate(7.094 -0.001)">
      <g id="Group_27" data-name="Group 27" transform="translate(0 0)">
        <path id="Path_15" data-name="Path 15" d="M134.758,5.485,128.606.212a.875.875,0,0,0-1.143,0L121.31,5.485a.879.879,0,0,0,.572,1.546h2.637V30h6.152a.878.878,0,0,0,.879-.879v-2a9.65,9.65,0,0,1,0-17.2V7.031h2.637a.879.879,0,0,0,.572-1.546Z" transform="translate(-121.003 0.001)" fill="#fff"/>
      </g>
    </g>
    <g id="Group_30" data-name="Group 30" transform="translate(5.336 12.363)">
      <g id="Group_29" data-name="Group 29">
        <path id="Path_16" data-name="Path 16" d="M91.881,211a.878.878,0,0,0-.879.879v16.757h3.516V211Z" transform="translate(-91.002 -211.005)" fill="#fff"/>
      </g>
    </g>
  </g>
</svg>
